<svg width="2404" height="682" viewBox="0 0 2404 682" fill="none" xmlns="http://www.w3.org/2000/svg">
<path fill-rule="evenodd" clip-rule="evenodd" d="M376.015 542C478.977 490.117 542 394.978 542 292.441V243.793C542 222.65 528.701 203.792 508.784 196.695L357.784 142.884C346.929 139.015 335.071 139.015 324.216 142.884L173.216 196.695C153.299 203.792 140 222.65 140 243.793V292.441C140 397.198 205.262 490.768 305.525 541.701L323.792 376.249C308.701 369.725 298.146 354.761 298.146 337.344C298.146 313.929 317.222 294.947 340.754 294.947C364.285 294.947 383.361 313.929 383.361 337.344C383.361 354.762 372.807 369.726 357.715 376.25L376.015 542Z" fill="#605DE9"/>
<path d="M376.015 542L375.27 542.082C375.297 542.327 375.441 542.542 375.657 542.659C375.873 542.776 376.133 542.78 376.353 542.67L376.015 542ZM508.784 196.695L509.036 195.988L508.784 196.695ZM357.784 142.884L358.036 142.177L357.784 142.884ZM324.216 142.884L324.468 143.59L324.216 142.884ZM173.216 196.695L172.964 195.988L173.216 196.695ZM305.525 541.701L305.185 542.369C305.405 542.481 305.665 542.477 305.881 542.36C306.098 542.243 306.243 542.027 306.27 541.783L305.525 541.701ZM323.792 376.249L324.537 376.332C324.574 376.004 324.392 375.692 324.09 375.561L323.792 376.249ZM357.715 376.25L357.417 375.561C357.115 375.692 356.933 376.005 356.97 376.332L357.715 376.25ZM541.25 292.441C541.25 394.656 478.424 489.556 375.678 541.33L376.353 542.67C479.531 490.678 542.75 395.301 542.75 292.441H541.25ZM541.25 243.793V292.441H542.75V243.793H541.25ZM508.532 197.401C528.15 204.392 541.25 222.967 541.25 243.793H542.75C542.75 222.333 529.251 203.192 509.036 195.988L508.532 197.401ZM357.533 143.59L508.532 197.401L509.036 195.988L358.036 142.177L357.533 143.59ZM324.468 143.59C335.16 139.78 346.84 139.78 357.533 143.59L358.036 142.177C347.018 138.251 334.982 138.251 323.964 142.177L324.468 143.59ZM173.467 197.401L324.468 143.59L323.964 142.177L172.964 195.988L173.467 197.401ZM140.75 243.793C140.75 222.967 153.85 204.392 173.467 197.401L172.964 195.988C152.749 203.192 139.25 222.333 139.25 243.793H140.75ZM140.75 292.441V243.793H139.25V292.441H140.75ZM305.865 541.032C205.808 490.204 140.75 396.868 140.75 292.441H139.25C139.25 397.528 204.716 491.332 305.185 542.369L305.865 541.032ZM323.046 376.167L304.779 541.618L306.27 541.783L324.537 376.332L323.046 376.167ZM297.396 337.344C297.396 355.073 308.14 370.3 323.494 376.938L324.09 375.561C309.261 369.151 298.896 354.45 298.896 337.344H297.396ZM340.754 294.197C316.812 294.197 297.396 313.511 297.396 337.344H298.896C298.896 314.346 317.633 295.697 340.754 295.697V294.197ZM384.111 337.344C384.111 313.511 364.696 294.197 340.754 294.197V295.697C363.874 295.697 382.611 314.346 382.611 337.344H384.111ZM358.013 376.938C373.367 370.3 384.111 355.073 384.111 337.344H382.611C382.611 354.45 372.246 369.151 357.417 375.561L358.013 376.938ZM376.761 541.918L358.46 376.167L356.97 376.332L375.27 542.082L376.761 541.918Z" fill="#605DE9"/>
<path fill-rule="evenodd" clip-rule="evenodd" d="M371.704 502.957C453.218 460.862 503 384.875 503 303.043V270.658C503 249.516 489.702 230.659 469.788 223.561L357.788 183.639C346.93 179.769 335.07 179.769 324.213 183.639L212.212 223.561C192.298 230.659 179 249.516 179 270.658V303.043C179 386.592 230.484 461.315 309.835 502.658L323.792 376.249C308.701 369.725 298.146 354.761 298.146 337.344C298.146 313.928 317.222 294.946 340.754 294.946C364.285 294.946 383.361 313.928 383.361 337.344C383.361 354.761 372.807 369.725 357.715 376.249L371.704 502.957Z" fill="#8D6EEF"/>
<path fill-rule="evenodd" clip-rule="evenodd" d="M366.239 453.458C423.291 422.788 458 368.855 458 310.852V297.326C458 276.178 444.694 257.316 424.771 250.223L357.771 226.368C346.924 222.506 335.076 222.506 324.229 226.368L257.229 250.223C237.306 257.316 224 276.178 224 297.326V310.852C224 369.999 259.806 423.014 315.3 453.159L323.792 376.249C308.701 369.725 298.146 354.761 298.146 337.344C298.146 313.928 317.222 294.946 340.754 294.946C364.285 294.946 383.361 313.928 383.361 337.344C383.361 354.761 372.807 369.725 357.715 376.249L366.239 453.458Z" fill="#CCA5FE"/>
<path fill-rule="evenodd" clip-rule="evenodd" d="M361.915 414.295C397.513 393.647 419 359.116 419 322.081C419 302.701 406.788 285.425 388.518 278.96L357.68 268.048C346.888 264.229 335.112 264.229 324.32 268.048L293.482 278.96C275.212 285.425 263 302.701 263 322.081C263 359.753 285.057 393.671 319.626 413.984L323.792 376.25C308.701 369.726 298.146 354.761 298.146 337.344C298.146 313.929 317.222 294.947 340.754 294.947C364.285 294.947 383.361 313.929 383.361 337.344C383.361 354.762 372.807 369.726 357.715 376.25L361.915 414.295Z" fill="#EEC6FE"/>
<path d="M727.44 395.08H651.78L638.78 432H607.84L672.58 251.04H706.9L771.64 432H740.44L727.44 395.08ZM719.12 370.9L689.74 286.92L660.1 370.9H719.12ZM934.729 288.74V432H905.089V415.1C900.409 420.993 894.256 425.673 886.629 429.14C879.176 432.433 871.202 434.08 862.709 434.08C851.442 434.08 841.302 431.74 832.289 427.06C823.449 422.38 816.429 415.447 811.229 406.26C806.202 397.073 803.689 385.98 803.689 372.98V288.74H833.069V368.56C833.069 381.387 836.276 391.267 842.689 398.2C849.102 404.96 857.856 408.34 868.949 408.34C880.042 408.34 888.796 404.96 895.209 398.2C901.796 391.267 905.089 381.387 905.089 368.56V288.74H934.729ZM1013.62 312.92V392.22C1013.62 397.593 1014.83 401.493 1017.26 403.92C1019.86 406.173 1024.19 407.3 1030.26 407.3H1048.46V432H1025.06C1011.71 432 1001.48 428.88 994.377 422.64C987.27 416.4 983.717 406.26 983.717 392.22V312.92H966.817V288.74H983.717V253.12H1013.62V288.74H1048.46V312.92H1013.62ZM1212.28 356.86C1212.28 362.233 1211.93 367.087 1211.24 371.42H1101.78C1102.64 382.86 1106.89 392.047 1114.52 398.98C1122.14 405.913 1131.5 409.38 1142.6 409.38C1158.54 409.38 1169.81 402.707 1176.4 389.36H1208.38C1204.04 402.533 1196.16 413.367 1184.72 421.86C1173.45 430.18 1159.41 434.34 1142.6 434.34C1128.9 434.34 1116.6 431.307 1105.68 425.24C1094.93 419 1086.44 410.333 1080.2 399.24C1074.13 387.973 1071.1 374.973 1071.1 360.24C1071.1 345.507 1074.04 332.593 1079.94 321.5C1086 310.233 1094.41 301.567 1105.16 295.5C1116.08 289.433 1128.56 286.4 1142.6 286.4C1156.12 286.4 1168.16 289.347 1178.74 295.24C1189.31 301.133 1197.54 309.453 1203.44 320.2C1209.33 330.773 1212.28 342.993 1212.28 356.86ZM1181.34 347.5C1181.16 336.58 1177.26 327.827 1169.64 321.24C1162.01 314.653 1152.56 311.36 1141.3 311.36C1131.07 311.36 1122.32 314.653 1115.04 321.24C1107.76 327.653 1103.42 336.407 1102.04 347.5H1181.34ZM1318.92 286.4C1330.19 286.4 1340.24 288.74 1349.08 293.42C1358.1 298.1 1365.12 305.033 1370.14 314.22C1375.17 323.407 1377.68 334.5 1377.68 347.5V432H1348.3V351.92C1348.3 339.093 1345.1 329.3 1338.68 322.54C1332.27 315.607 1323.52 312.14 1312.42 312.14C1301.33 312.14 1292.49 315.607 1285.9 322.54C1279.49 329.3 1276.28 339.093 1276.28 351.92V432H1246.64V288.74H1276.28V305.12C1281.14 299.227 1287.29 294.633 1294.74 291.34C1302.37 288.047 1310.43 286.4 1318.92 286.4ZM1455.27 312.92V392.22C1455.27 397.593 1456.48 401.493 1458.91 403.92C1461.51 406.173 1465.84 407.3 1471.91 407.3H1490.11V432H1466.71C1453.36 432 1443.14 428.88 1436.03 422.64C1428.92 416.4 1425.37 406.26 1425.37 392.22V312.92H1408.47V288.74H1425.37V253.12H1455.27V288.74H1490.11V312.92H1455.27ZM1537.71 269.76C1532.34 269.76 1527.83 267.94 1524.19 264.3C1520.55 260.66 1518.73 256.153 1518.73 250.78C1518.73 245.407 1520.55 240.9 1524.19 237.26C1527.83 233.62 1532.34 231.8 1537.71 231.8C1542.91 231.8 1547.33 233.62 1550.97 237.26C1554.61 240.9 1556.43 245.407 1556.43 250.78C1556.43 256.153 1554.61 260.66 1550.97 264.3C1547.33 267.94 1542.91 269.76 1537.71 269.76ZM1552.27 288.74V432H1522.63V288.74H1552.27ZM1586.5 360.24C1586.5 345.507 1589.45 332.593 1595.34 321.5C1601.41 310.233 1609.73 301.567 1620.3 295.5C1630.88 289.433 1643.01 286.4 1656.7 286.4C1674.04 286.4 1688.34 290.56 1699.6 298.88C1711.04 307.027 1718.76 318.727 1722.74 333.98H1690.76C1688.16 326.873 1684 321.327 1678.28 317.34C1672.56 313.353 1665.37 311.36 1656.7 311.36C1644.57 311.36 1634.86 315.693 1627.58 324.36C1620.48 332.853 1616.92 344.813 1616.92 360.24C1616.92 375.667 1620.48 387.713 1627.58 396.38C1634.86 405.047 1644.57 409.38 1656.7 409.38C1673.86 409.38 1685.22 401.84 1690.76 386.76H1722.74C1718.58 401.32 1710.78 412.933 1699.34 421.6C1687.9 430.093 1673.69 434.34 1656.7 434.34C1643.01 434.34 1630.88 431.307 1620.3 425.24C1609.73 419 1601.41 410.333 1595.34 399.24C1589.45 387.973 1586.5 374.973 1586.5 360.24ZM1747.6 359.72C1747.6 345.333 1750.55 332.593 1756.44 321.5C1762.51 310.407 1770.66 301.827 1780.88 295.76C1791.28 289.52 1802.72 286.4 1815.2 286.4C1826.47 286.4 1836.26 288.653 1844.58 293.16C1853.08 297.493 1859.84 302.953 1864.86 309.54V288.74H1894.76V432H1864.86V410.68C1859.84 417.44 1852.99 423.073 1844.32 427.58C1835.66 432.087 1825.78 434.34 1814.68 434.34C1802.38 434.34 1791.11 431.22 1780.88 424.98C1770.66 418.567 1762.51 409.727 1756.44 398.46C1750.55 387.02 1747.6 374.107 1747.6 359.72ZM1864.86 360.24C1864.86 350.36 1862.78 341.78 1858.62 334.5C1854.64 327.22 1849.35 321.673 1842.76 317.86C1836.18 314.047 1829.07 312.14 1821.44 312.14C1813.82 312.14 1806.71 314.047 1800.12 317.86C1793.54 321.5 1788.16 326.96 1784 334.24C1780.02 341.347 1778.02 349.84 1778.02 359.72C1778.02 369.6 1780.02 378.267 1784 385.72C1788.16 393.173 1793.54 398.893 1800.12 402.88C1806.88 406.693 1813.99 408.6 1821.44 408.6C1829.07 408.6 1836.18 406.693 1842.76 402.88C1849.35 399.067 1854.64 393.52 1858.62 386.24C1862.78 378.787 1864.86 370.12 1864.86 360.24ZM2112.31 286.4C2123.58 286.4 2133.63 288.74 2142.47 293.42C2151.49 298.1 2158.51 305.033 2163.53 314.22C2168.73 323.407 2171.33 334.5 2171.33 347.5V432H2141.95V351.92C2141.95 339.093 2138.75 329.3 2132.33 322.54C2125.92 315.607 2117.17 312.14 2106.07 312.14C2094.98 312.14 2086.14 315.607 2079.55 322.54C2073.14 329.3 2069.93 339.093 2069.93 351.92V432H2040.55V351.92C2040.55 339.093 2037.35 329.3 2030.93 322.54C2024.52 315.607 2015.77 312.14 2004.67 312.14C1993.58 312.14 1984.74 315.607 1978.15 322.54C1971.74 329.3 1968.53 339.093 1968.53 351.92V432H1938.89V288.74H1968.53V305.12C1973.39 299.227 1979.54 294.633 1986.99 291.34C1994.45 288.047 2002.42 286.4 2010.91 286.4C2022.35 286.4 2032.58 288.827 2041.59 293.68C2050.61 298.533 2057.54 305.553 2062.39 314.74C2066.73 306.073 2073.49 299.227 2082.67 294.2C2091.86 289 2101.74 286.4 2112.31 286.4ZM2229.33 269.76C2223.96 269.76 2219.45 267.94 2215.81 264.3C2212.17 260.66 2210.35 256.153 2210.35 250.78C2210.35 245.407 2212.17 240.9 2215.81 237.26C2219.45 233.62 2223.96 231.8 2229.33 231.8C2234.53 231.8 2238.95 233.62 2242.59 237.26C2246.23 240.9 2248.05 245.407 2248.05 250.78C2248.05 256.153 2246.23 260.66 2242.59 264.3C2238.95 267.94 2234.53 269.76 2229.33 269.76ZM2243.89 288.74V432H2214.25V288.74H2243.89Z" fill="black"/>
</svg>
