<svg width="1945" height="1129" viewBox="0 0 1945 1129" fill="none" xmlns="http://www.w3.org/2000/svg">
<path fill-rule="evenodd" clip-rule="evenodd" d="M1007.52 542C1110.48 490.117 1173.5 394.978 1173.5 292.441V243.793C1173.5 222.65 1160.2 203.792 1140.28 196.695L989.284 142.884C978.429 139.015 966.571 139.015 955.716 142.884L804.716 196.695C784.799 203.792 771.5 222.65 771.5 243.793V292.441C771.5 397.198 836.762 490.768 937.025 541.701L955.292 376.249C940.201 369.725 929.646 354.761 929.646 337.344C929.646 313.929 948.722 294.947 972.254 294.947C995.785 294.947 1014.86 313.929 1014.86 337.344C1014.86 354.762 1004.31 369.726 989.215 376.25L1007.52 542Z" fill="#605DE9"/>
<path d="M1007.52 542L1006.77 542.082C1006.8 542.327 1006.94 542.542 1007.16 542.659C1007.37 542.776 1007.63 542.78 1007.85 542.67L1007.52 542ZM1140.28 196.695L1140.54 195.988L1140.54 195.988L1140.28 196.695ZM989.284 142.884L989.536 142.177L989.536 142.177L989.284 142.884ZM955.716 142.884L955.968 143.59L955.968 143.59L955.716 142.884ZM804.716 196.695L804.464 195.988L804.464 195.988L804.716 196.695ZM937.025 541.701L936.685 542.369C936.905 542.481 937.165 542.477 937.381 542.36C937.598 542.243 937.743 542.028 937.77 541.783L937.025 541.701ZM955.292 376.249L956.037 376.332C956.074 376.004 955.892 375.692 955.59 375.561L955.292 376.249ZM989.215 376.25L988.917 375.561C988.615 375.692 988.433 376.005 988.47 376.332L989.215 376.25ZM1172.75 292.441C1172.75 394.656 1109.92 489.556 1007.18 541.33L1007.85 542.67C1111.03 490.678 1174.25 395.301 1174.25 292.441H1172.75ZM1172.75 243.793V292.441H1174.25V243.793H1172.75ZM1140.03 197.401C1159.65 204.392 1172.75 222.967 1172.75 243.793H1174.25C1174.25 222.333 1160.75 203.192 1140.54 195.988L1140.03 197.401ZM989.033 143.59L1140.03 197.401L1140.54 195.988L989.536 142.177L989.033 143.59ZM955.968 143.59C966.66 139.78 978.34 139.78 989.033 143.59L989.536 142.177C978.518 138.251 966.482 138.251 955.464 142.177L955.968 143.59ZM804.967 197.401L955.968 143.59L955.464 142.177L804.464 195.988L804.967 197.401ZM772.25 243.793C772.25 222.967 785.35 204.392 804.967 197.401L804.464 195.988C784.249 203.192 770.75 222.333 770.75 243.793H772.25ZM772.25 292.441V243.793H770.75V292.441H772.25ZM937.365 541.032C837.308 490.204 772.25 396.868 772.25 292.441H770.75C770.75 397.528 836.216 491.332 936.685 542.369L937.365 541.032ZM954.546 376.167L936.279 541.618L937.77 541.783L956.037 376.332L954.546 376.167ZM928.896 337.344C928.896 355.073 939.64 370.3 954.994 376.938L955.59 375.561C940.761 369.151 930.396 354.45 930.396 337.344H928.896ZM972.254 294.197C948.312 294.197 928.896 313.511 928.896 337.344H930.396C930.396 314.346 949.133 295.697 972.254 295.697V294.197ZM1015.61 337.344C1015.61 313.511 996.196 294.197 972.254 294.197V295.697C995.374 295.697 1014.11 314.346 1014.11 337.344H1015.61ZM989.513 376.938C1004.87 370.3 1015.61 355.073 1015.61 337.344H1014.11C1014.11 354.45 1003.75 369.151 988.917 375.561L989.513 376.938ZM1008.26 541.918L989.96 376.167L988.47 376.332L1006.77 542.082L1008.26 541.918Z" fill="#605DE9"/>
<path fill-rule="evenodd" clip-rule="evenodd" d="M1003.2 502.957C1084.72 460.862 1134.5 384.875 1134.5 303.043V270.658C1134.5 249.516 1121.2 230.659 1101.29 223.561L989.288 183.639C978.43 179.769 966.57 179.769 955.713 183.639L843.712 223.561C823.798 230.659 810.5 249.516 810.5 270.658V303.043C810.5 386.592 861.984 461.315 941.335 502.658L955.292 376.249C940.201 369.725 929.646 354.761 929.646 337.344C929.646 313.928 948.722 294.946 972.254 294.946C995.785 294.946 1014.86 313.928 1014.86 337.344C1014.86 354.761 1004.31 369.725 989.215 376.249L1003.2 502.957Z" fill="#8D6EEF"/>
<path fill-rule="evenodd" clip-rule="evenodd" d="M997.739 453.458C1054.79 422.788 1089.5 368.855 1089.5 310.852V297.326C1089.5 276.178 1076.19 257.316 1056.27 250.223L989.271 226.368C978.424 222.506 966.576 222.506 955.729 226.368L888.729 250.223C868.806 257.316 855.5 276.178 855.5 297.326V310.852C855.5 369.999 891.306 423.014 946.8 453.159L955.292 376.249C940.201 369.725 929.646 354.761 929.646 337.344C929.646 313.928 948.722 294.946 972.254 294.946C995.785 294.946 1014.86 313.928 1014.86 337.344C1014.86 354.761 1004.31 369.725 989.215 376.249L997.739 453.458Z" fill="#CCA5FE"/>
<path fill-rule="evenodd" clip-rule="evenodd" d="M993.415 414.295C1029.01 393.648 1050.5 359.117 1050.5 322.081C1050.5 302.702 1038.29 285.426 1020.02 278.961L989.18 268.048C978.388 264.229 966.612 264.229 955.82 268.048L924.982 278.961C906.712 285.426 894.5 302.702 894.5 322.081C894.5 359.753 916.557 393.671 951.126 413.984L955.292 376.25C940.201 369.726 929.646 354.762 929.646 337.345C929.646 313.929 948.722 294.947 972.254 294.947C995.785 294.947 1014.86 313.929 1014.86 337.345C1014.86 354.762 1004.31 369.726 989.215 376.25L993.415 414.295Z" fill="#EEC6FE"/>
<path d="M268.44 848.08H192.78L179.78 885H148.84L213.58 704.04H247.9L312.64 885H281.44L268.44 848.08ZM260.12 823.9L230.74 739.92L201.1 823.9H260.12ZM475.729 741.74V885H446.089V868.1C441.409 873.993 435.256 878.673 427.629 882.14C420.176 885.433 412.202 887.08 403.709 887.08C392.442 887.08 382.302 884.74 373.289 880.06C364.449 875.38 357.429 868.447 352.229 859.26C347.202 850.073 344.689 838.98 344.689 825.98V741.74H374.069V821.56C374.069 834.387 377.276 844.267 383.689 851.2C390.102 857.96 398.856 861.34 409.949 861.34C421.042 861.34 429.796 857.96 436.209 851.2C442.796 844.267 446.089 834.387 446.089 821.56V741.74H475.729ZM554.617 765.92V845.22C554.617 850.593 555.83 854.493 558.257 856.92C560.857 859.173 565.19 860.3 571.257 860.3H589.457V885H566.057C552.71 885 542.483 881.88 535.377 875.64C528.27 869.4 524.717 859.26 524.717 845.22V765.92H507.817V741.74H524.717V706.12H554.617V741.74H589.457V765.92H554.617ZM753.275 809.86C753.275 815.233 752.928 820.087 752.235 824.42H642.775C643.642 835.86 647.888 845.047 655.515 851.98C663.142 858.913 672.502 862.38 683.595 862.38C699.542 862.38 710.808 855.707 717.395 842.36H749.375C745.042 855.533 737.155 866.367 725.715 874.86C714.448 883.18 700.408 887.34 683.595 887.34C669.902 887.34 657.595 884.307 646.675 878.24C635.928 872 627.435 863.333 621.195 852.24C615.128 840.973 612.095 827.973 612.095 813.24C612.095 798.507 615.042 785.593 620.935 774.5C627.002 763.233 635.408 754.567 646.155 748.5C657.075 742.433 669.555 739.4 683.595 739.4C697.115 739.4 709.162 742.347 719.735 748.24C730.308 754.133 738.542 762.453 744.435 773.2C750.328 783.773 753.275 795.993 753.275 809.86ZM722.335 800.5C722.162 789.58 718.262 780.827 710.635 774.24C703.008 767.653 693.562 764.36 682.295 764.36C672.068 764.36 663.315 767.653 656.035 774.24C648.755 780.653 644.422 789.407 643.035 800.5H722.335ZM859.924 739.4C871.19 739.4 881.244 741.74 890.084 746.42C899.097 751.1 906.117 758.033 911.144 767.22C916.17 776.407 918.684 787.5 918.684 800.5V885H889.304V804.92C889.304 792.093 886.097 782.3 879.684 775.54C873.27 768.607 864.517 765.14 853.424 765.14C842.33 765.14 833.49 768.607 826.904 775.54C820.49 782.3 817.284 792.093 817.284 804.92V885H787.644V741.74H817.284V758.12C822.137 752.227 828.29 747.633 835.744 744.34C843.37 741.047 851.43 739.4 859.924 739.4ZM996.271 765.92V845.22C996.271 850.593 997.485 854.493 999.911 856.92C1002.51 859.173 1006.84 860.3 1012.91 860.3H1031.11V885H1007.71C994.365 885 984.138 881.88 977.031 875.64C969.925 869.4 966.371 859.26 966.371 845.22V765.92H949.471V741.74H966.371V706.12H996.271V741.74H1031.11V765.92H996.271ZM1078.71 722.76C1073.34 722.76 1068.83 720.94 1065.19 717.3C1061.55 713.66 1059.73 709.153 1059.73 703.78C1059.73 698.407 1061.55 693.9 1065.19 690.26C1068.83 686.62 1073.34 684.8 1078.71 684.8C1083.91 684.8 1088.33 686.62 1091.97 690.26C1095.61 693.9 1097.43 698.407 1097.43 703.78C1097.43 709.153 1095.61 713.66 1091.97 717.3C1088.33 720.94 1083.91 722.76 1078.71 722.76ZM1093.27 741.74V885H1063.63V741.74H1093.27ZM1127.5 813.24C1127.5 798.507 1130.45 785.593 1136.34 774.5C1142.41 763.233 1150.73 754.567 1161.3 748.5C1171.88 742.433 1184.01 739.4 1197.7 739.4C1215.04 739.4 1229.34 743.56 1240.6 751.88C1252.04 760.027 1259.76 771.727 1263.74 786.98H1231.76C1229.16 779.873 1225 774.327 1219.28 770.34C1213.56 766.353 1206.37 764.36 1197.7 764.36C1185.57 764.36 1175.86 768.693 1168.58 777.36C1161.48 785.853 1157.92 797.813 1157.92 813.24C1157.92 828.667 1161.48 840.713 1168.58 849.38C1175.86 858.047 1185.57 862.38 1197.7 862.38C1214.86 862.38 1226.22 854.84 1231.76 839.76H1263.74C1259.58 854.32 1251.78 865.933 1240.34 874.6C1228.9 883.093 1214.69 887.34 1197.7 887.34C1184.01 887.34 1171.88 884.307 1161.3 878.24C1150.73 872 1142.41 863.333 1136.34 852.24C1130.45 840.973 1127.5 827.973 1127.5 813.24ZM1288.6 812.72C1288.6 798.333 1291.55 785.593 1297.44 774.5C1303.51 763.407 1311.66 754.827 1321.88 748.76C1332.28 742.52 1343.72 739.4 1356.2 739.4C1367.47 739.4 1377.26 741.653 1385.58 746.16C1394.08 750.493 1400.84 755.953 1405.86 762.54V741.74H1435.76V885H1405.86V863.68C1400.84 870.44 1393.99 876.073 1385.32 880.58C1376.66 885.087 1366.78 887.34 1355.68 887.34C1343.38 887.34 1332.11 884.22 1321.88 877.98C1311.66 871.567 1303.51 862.727 1297.44 851.46C1291.55 840.02 1288.6 827.107 1288.6 812.72ZM1405.86 813.24C1405.86 803.36 1403.78 794.78 1399.62 787.5C1395.64 780.22 1390.35 774.673 1383.76 770.86C1377.18 767.047 1370.07 765.14 1362.44 765.14C1354.82 765.14 1347.71 767.047 1341.12 770.86C1334.54 774.5 1329.16 779.96 1325 787.24C1321.02 794.347 1319.02 802.84 1319.02 812.72C1319.02 822.6 1321.02 831.267 1325 838.72C1329.16 846.173 1334.54 851.893 1341.12 855.88C1347.88 859.693 1354.99 861.6 1362.44 861.6C1370.07 861.6 1377.18 859.693 1383.76 855.88C1390.35 852.067 1395.64 846.52 1399.62 839.24C1403.78 831.787 1405.86 823.12 1405.86 813.24ZM1653.31 739.4C1664.58 739.4 1674.63 741.74 1683.47 746.42C1692.49 751.1 1699.51 758.033 1704.53 767.22C1709.73 776.407 1712.33 787.5 1712.33 800.5V885H1682.95V804.92C1682.95 792.093 1679.75 782.3 1673.33 775.54C1666.92 768.607 1658.17 765.14 1647.07 765.14C1635.98 765.14 1627.14 768.607 1620.55 775.54C1614.14 782.3 1610.93 792.093 1610.93 804.92V885H1581.55V804.92C1581.55 792.093 1578.35 782.3 1571.93 775.54C1565.52 768.607 1556.77 765.14 1545.67 765.14C1534.58 765.14 1525.74 768.607 1519.15 775.54C1512.74 782.3 1509.53 792.093 1509.53 804.92V885H1479.89V741.74H1509.53V758.12C1514.39 752.227 1520.54 747.633 1527.99 744.34C1535.45 741.047 1543.42 739.4 1551.91 739.4C1563.35 739.4 1573.58 741.827 1582.59 746.68C1591.61 751.533 1598.54 758.553 1603.39 767.74C1607.73 759.073 1614.49 752.227 1623.67 747.2C1632.86 742 1642.74 739.4 1653.31 739.4ZM1770.33 722.76C1764.96 722.76 1760.45 720.94 1756.81 717.3C1753.17 713.66 1751.35 709.153 1751.35 703.78C1751.35 698.407 1753.17 693.9 1756.81 690.26C1760.45 686.62 1764.96 684.8 1770.33 684.8C1775.53 684.8 1779.95 686.62 1783.59 690.26C1787.23 693.9 1789.05 698.407 1789.05 703.78C1789.05 709.153 1787.23 713.66 1783.59 717.3C1779.95 720.94 1775.53 722.76 1770.33 722.76ZM1784.89 741.74V885H1755.25V741.74H1784.89Z" fill="#1C1A96"/>
</svg>
