<svg width="682" height="650" viewBox="0 0 682 650" fill="none" xmlns="http://www.w3.org/2000/svg">
<rect width="682" height="650" fill="white"/>
<path fill-rule="evenodd" clip-rule="evenodd" d="M376.015 526C478.977 474.117 542 378.978 542 276.441V227.793C542 206.65 528.701 187.792 508.784 180.695L357.784 126.884C346.929 123.015 335.071 123.015 324.216 126.884L173.216 180.695C153.299 187.792 140 206.65 140 227.793V276.441C140 381.198 205.262 474.768 305.525 525.701L323.792 360.249C308.701 353.725 298.146 338.761 298.146 321.344C298.146 297.929 317.222 278.947 340.754 278.947C364.285 278.947 383.361 297.929 383.361 321.344C383.361 338.762 372.807 353.726 357.715 360.25L376.015 526Z" fill="#605DE9"/>
<path d="M376.015 526L375.27 526.082C375.297 526.327 375.441 526.542 375.657 526.659C375.873 526.776 376.133 526.78 376.353 526.67L376.015 526ZM508.784 180.695L509.036 179.988L508.784 180.695ZM357.784 126.884L358.036 126.177L357.784 126.884ZM324.216 126.884L324.468 127.59L324.216 126.884ZM173.216 180.695L172.964 179.988L173.216 180.695ZM305.525 525.701L305.185 526.369C305.405 526.481 305.665 526.477 305.881 526.36C306.098 526.243 306.243 526.027 306.27 525.783L305.525 525.701ZM323.792 360.249L324.537 360.332C324.574 360.004 324.392 359.692 324.09 359.561L323.792 360.249ZM357.715 360.25L357.417 359.561C357.115 359.692 356.933 360.005 356.97 360.332L357.715 360.25ZM541.25 276.441C541.25 378.656 478.424 473.556 375.678 525.33L376.353 526.67C479.531 474.678 542.75 379.301 542.75 276.441H541.25ZM541.25 227.793V276.441H542.75V227.793H541.25ZM508.532 181.401C528.15 188.392 541.25 206.967 541.25 227.793H542.75C542.75 206.333 529.251 187.192 509.036 179.988L508.532 181.401ZM357.533 127.59L508.532 181.401L509.036 179.988L358.036 126.177L357.533 127.59ZM324.468 127.59C335.16 123.78 346.84 123.78 357.533 127.59L358.036 126.177C347.018 122.251 334.982 122.251 323.964 126.177L324.468 127.59ZM173.467 181.401L324.468 127.59L323.964 126.177L172.964 179.988L173.467 181.401ZM140.75 227.793C140.75 206.967 153.85 188.392 173.467 181.401L172.964 179.988C152.749 187.192 139.25 206.333 139.25 227.793H140.75ZM140.75 276.441V227.793H139.25V276.441H140.75ZM305.865 525.032C205.808 474.204 140.75 380.868 140.75 276.441H139.25C139.25 381.528 204.716 475.332 305.185 526.369L305.865 525.032ZM323.046 360.167L304.779 525.618L306.27 525.783L324.537 360.332L323.046 360.167ZM297.396 321.344C297.396 339.073 308.14 354.3 323.494 360.938L324.09 359.561C309.261 353.151 298.896 338.45 298.896 321.344H297.396ZM340.754 278.197C316.812 278.197 297.396 297.511 297.396 321.344H298.896C298.896 298.346 317.633 279.697 340.754 279.697V278.197ZM384.111 321.344C384.111 297.511 364.696 278.197 340.754 278.197V279.697C363.874 279.697 382.611 298.346 382.611 321.344H384.111ZM358.013 360.938C373.367 354.3 384.111 339.073 384.111 321.344H382.611C382.611 338.45 372.246 353.151 357.417 359.561L358.013 360.938ZM376.761 525.918L358.46 360.167L356.97 360.332L375.27 526.082L376.761 525.918Z" fill="#605DE9"/>
<path fill-rule="evenodd" clip-rule="evenodd" d="M371.704 486.957C453.218 444.862 503 368.875 503 287.043V254.658C503 233.516 489.702 214.659 469.788 207.561L357.788 167.639C346.93 163.769 335.07 163.769 324.213 167.639L212.212 207.561C192.298 214.659 179 233.516 179 254.658V287.043C179 370.592 230.484 445.315 309.835 486.658L323.792 360.249C308.701 353.725 298.146 338.761 298.146 321.344C298.146 297.928 317.222 278.946 340.754 278.946C364.285 278.946 383.361 297.928 383.361 321.344C383.361 338.761 372.807 353.725 357.715 360.249L371.704 486.957Z" fill="#8D6EEF"/>
<path fill-rule="evenodd" clip-rule="evenodd" d="M366.239 437.458C423.291 406.788 458 352.855 458 294.852V281.326C458 260.178 444.694 241.316 424.771 234.223L357.771 210.368C346.924 206.506 335.076 206.506 324.229 210.368L257.229 234.223C237.306 241.316 224 260.178 224 281.326V294.852C224 353.999 259.806 407.014 315.3 437.159L323.792 360.249C308.701 353.725 298.146 338.761 298.146 321.344C298.146 297.928 317.222 278.946 340.754 278.946C364.285 278.946 383.361 297.928 383.361 321.344C383.361 338.761 372.807 353.725 357.715 360.249L366.239 437.458Z" fill="#CCA5FE"/>
<path fill-rule="evenodd" clip-rule="evenodd" d="M361.915 398.295C397.513 377.648 419 343.117 419 306.081C419 286.702 406.788 269.425 388.518 262.96L357.68 252.048C346.888 248.229 335.112 248.229 324.32 252.048L293.482 262.96C275.212 269.425 263 286.702 263 306.081C263 343.753 285.057 377.671 319.626 397.984L323.792 360.25C308.701 353.726 298.146 338.762 298.146 321.345C298.146 297.929 317.222 278.947 340.754 278.947C364.285 278.947 383.361 297.929 383.361 321.345C383.361 338.762 372.807 353.726 357.715 360.25L361.915 398.295Z" fill="#EEC6FE"/>
</svg>
